# xmcd
#
# Track frame offsets: 
#        150
#        13872
#        27220
#        42237
#        55540
#        68452
#        82625
#        95430
#        108385
#        122502
#        136752
#        150052
#        164295
#        178772
#        192100
#        207457
#        221952
#        235415
#        248760
#        263027
#
# Disc length: 3694 seconds
#
# Revision: 5
# Processed by: cddbd v1.5.1PL0 Copyright (c) Steve Scherf et al.
# Submitted via: ExactAudioCopy v0.95a5
#
DISCID=fc0e6c14
DTITLE=Various Artist - Raunchy Business: Hot Nuts and Lollypops
DYEAR=1991
DGENRE=Blues
TTITLE0=Lil Johnson - Sam- the Hotdog Man
TTITLE1=Lil Johnson - My Stove's In Good Condition
TTITLE2=Lonnie Johnson - Wipe It Off
TTITLE3=Lonnie Johnson - The Best Jockey In Town
TTITLE4=Lucille Bogan - Shave 'Em Dry I
TTITLE5=Lucille Bogan - Shave 'Em Dry II
TTITLE6=Lillie Mae Kirkman - He's Just My Size
TTITLE7=Barrel House Annie - If It Don't Fit (Don't Force It)
TTITLE8=Lonnie Johnson and Victoria Spivey - Furniture Man Blues- Part 1
TTITLE9=Lonnie Johnson and Victoria Spivey - Furniture Man Blues- Part 2
TTITLE10=Bo Carter - My Pencil Won't Write No More
TTITLE11=Bo Carter - Banana In Your Fruit Basket
TTITLE12=Lil Johnson - Get 'Em From the Peanut Man (Hot Nuts)
TTITLE13=Lil Johnson - Get 'Em From the Peanut Man (The New Hot Nuts)
TTITLE14=Mississippi Sheiks - Driving That Thing
TTITLE15=Mississippi Sheiks - Bed Spring Poker
TTITLE16=Hunter and Jenkins - Lollypop
TTITLE17=Hunter and Jenkins - Meat Cuttin' Blues
TTITLE18=Buddy Moss - You Got To Give Me Some of It
TTITLE19=Bernice Edwards - Butcher Shop Blues
EXTD=LABEL =Sony Entertainment Inc.\nID =CK46783\nUPC =07464-46783-
EXTD=2\nCOPYRIGHT =1991
EXTT0=
EXTT1=
EXTT2=
EXTT3=
EXTT4=
EXTT5=
EXTT6=
EXTT7=
EXTT8=
EXTT9=
EXTT10=
EXTT11=
EXTT12=
EXTT13=
EXTT14=
EXTT15=
EXTT16=
EXTT17=
EXTT18=
EXTT19=
PLAYORDER=
